<svg width="20" height="20" viewBox="0 0 20 20" fill="none" xmlns="http://www.w3.org/2000/svg">
<path d="M6.18111 16.1811C6.50481 15.8567 6.66667 15.463 6.66667 15C6.66667 14.537 6.50481 14.1437 6.18111 13.82C5.85741 13.4963 5.4637 13.3341 5 13.3333C4.5363 13.3326 4.14296 13.4948 3.82 13.82C3.49704 14.1452 3.33481 14.5385 3.33333 15C3.33185 15.4615 3.49407 15.8552 3.82 16.1811C4.14593 16.507 4.53926 16.6689 5 16.6667C5.46074 16.6644 5.85444 16.5026 6.18111 16.1811ZM6.18111 6.18111C6.50481 5.85593 6.66667 5.46222 6.66667 5C6.66667 4.53778 6.50481 4.14444 6.18111 3.82C5.85741 3.49556 5.4637 3.33333 5 3.33333C4.5363 3.33333 4.14296 3.49556 3.82 3.82C3.49704 4.14444 3.33481 4.53778 3.33333 5C3.33185 5.46222 3.49407 5.85593 3.82 6.18111C4.14593 6.5063 4.53926 6.66815 5 6.66667C5.46074 6.66518 5.85444 6.50333 6.18111 6.18111ZM11.1811 11.1811C11.5048 10.8567 11.6667 10.463 11.6667 10C11.6667 9.53704 11.5048 9.1437 11.1811 8.82C10.8574 8.4963 10.4637 8.33407 10 8.33333C9.5363 8.33259 9.14296 8.49481 8.82 8.82C8.49704 9.14518 8.33481 9.53852 8.33333 10C8.33185 10.4615 8.49407 10.8552 8.82 11.1811C9.14593 11.507 9.53926 11.6689 10 11.6667C10.4607 11.6644 10.8544 11.5026 11.1811 11.1811ZM16.1811 16.1811C16.5048 15.8567 16.6667 15.463 16.6667 15C16.6667 14.537 16.5048 14.1437 16.1811 13.82C15.8574 13.4963 15.4637 13.3341 15 13.3333C14.5363 13.3326 14.143 13.4948 13.82 13.82C13.497 14.1452 13.3348 14.5385 13.3333 15C13.3319 15.4615 13.4941 15.8552 13.82 16.1811C14.1459 16.507 14.5393 16.6689 15 16.6667C15.4607 16.6644 15.8544 16.5026 16.1811 16.1811ZM16.1811 6.18111C16.5048 5.85593 16.6667 5.46222 16.6667 5C16.6667 4.53778 16.5048 4.14444 16.1811 3.82C15.8574 3.49556 15.4637 3.33333 15 3.33333C14.5363 3.33333 14.143 3.49556 13.82 3.82C13.497 4.14444 13.3348 4.53778 13.3333 5C13.3319 5.46222 13.4941 5.85593 13.82 6.18111C14.1459 6.5063 14.5393 6.66815 15 6.66667C15.4607 6.66518 15.8544 6.50333 16.1811 6.18111ZM2.22222 20C1.61111 20 1.08815 19.7826 0.653333 19.3478C0.218519 18.913 0.000740741 18.3896 0 17.7778V2.22222C0 1.61111 0.217778 1.08815 0.653333 0.653333C1.08889 0.218519 1.61185 0.000740741 2.22222 0H17.7778C18.3889 0 18.9122 0.217778 19.3478 0.653333C19.7833 1.08889 20.0007 1.61185 20 2.22222V17.7778C20 18.3889 19.7826 18.9122 19.3478 19.3478C18.913 19.7833 18.3896 20.0007 17.7778 20H2.22222Z" fill="#ED0000"/>
</svg>
