<svg width="20" height="20" viewBox="0 0 20 20" fill="none" xmlns="http://www.w3.org/2000/svg">
<path d="M1.25 20C0.895833 20 0.599167 19.88 0.36 19.64C0.120833 19.4 0.000833333 19.1033 0 18.75V7.5C0 7.14583 0.12 6.84917 0.36 6.61C0.6 6.37083 0.896667 6.25083 1.25 6.25H3.75C4.10417 6.25 4.40125 6.37 4.64125 6.61C4.88125 6.85 5.00083 7.14667 5 7.5V18.75C5 19.1042 4.88 19.4012 4.64 19.6412C4.4 19.8812 4.10333 20.0008 3.75 20H1.25ZM1.25 5C0.895833 5 0.599167 4.88 0.36 4.64C0.120833 4.4 0.000833333 4.10333 0 3.75V1.25C0 0.895833 0.12 0.599167 0.36 0.36C0.6 0.120833 0.896667 0.000833333 1.25 0H3.75C4.10417 0 4.40125 0.12 4.64125 0.36C4.88125 0.6 5.00083 0.896667 5 1.25V3.75C5 4.10417 4.88 4.40125 4.64 4.64125C4.4 4.88125 4.10333 5.00083 3.75 5H1.25ZM8.75 20C8.39583 20 8.09917 19.88 7.86 19.64C7.62083 19.4 7.50083 19.1033 7.5 18.75V11.25C7.5 10.8958 7.62 10.5992 7.86 10.36C8.1 10.1208 8.39667 10.0008 8.75 10H11.25C11.6042 10 11.9012 10.12 12.1412 10.36C12.3812 10.6 12.5008 10.8967 12.5 11.25V18.75C12.5 19.1042 12.38 19.4012 12.14 19.6412C11.9 19.8812 11.6033 20.0008 11.25 20H8.75ZM8.75 8.75C8.39583 8.75 8.09917 8.63 7.86 8.39C7.62083 8.15 7.50083 7.85333 7.5 7.5V5C7.5 4.64583 7.62 4.34917 7.86 4.11C8.1 3.87083 8.39667 3.75083 8.75 3.75H11.25C11.6042 3.75 11.9012 3.87 12.1412 4.11C12.3812 4.35 12.5008 4.64667 12.5 5V7.5C12.5 7.85417 12.38 8.15125 12.14 8.39125C11.9 8.63125 11.6033 8.75083 11.25 8.75H8.75ZM16.25 20C15.8958 20 15.5992 19.88 15.36 19.64C15.1208 19.4 15.0008 19.1033 15 18.75V15C15 14.6458 15.12 14.3492 15.36 14.11C15.6 13.8708 15.8967 13.7508 16.25 13.75H18.75C19.1042 13.75 19.4012 13.87 19.6412 14.11C19.8812 14.35 20.0008 14.6467 20 15V18.75C20 19.1042 19.88 19.4012 19.64 19.6412C19.4 19.8812 19.1033 20.0008 18.75 20H16.25ZM16.25 12.5C15.8958 12.5 15.5992 12.38 15.36 12.14C15.1208 11.9 15.0008 11.6033 15 11.25V8.75C15 8.39583 15.12 8.09917 15.36 7.86C15.6 7.62083 15.8967 7.50083 16.25 7.5H18.75C19.1042 7.5 19.4012 7.62 19.6412 7.86C19.8812 8.1 20.0008 8.39667 20 8.75V11.25C20 11.6042 19.88 11.9012 19.64 12.1412C19.4 12.3812 19.1033 12.5008 18.75 12.5H16.25Z" fill="#ED0000"/>
</svg>
