<svg width="22" height="22" viewBox="0 0 22 22" fill="none" xmlns="http://www.w3.org/2000/svg">
<path d="M14.75 4.75C14.75 2.864 14.75 1.922 14.164 1.336C13.578 0.75 12.636 0.75 10.75 0.75C8.864 0.75 7.922 0.75 7.336 1.336C6.75 1.922 6.75 2.864 6.75 4.75M0.75 12.75C0.75 8.979 0.75 7.093 1.922 5.922C3.094 4.751 4.979 4.75 8.75 4.75H12.75C16.521 4.75 18.407 4.75 19.578 5.922C20.749 7.094 20.75 8.979 20.75 12.75C20.75 16.521 20.75 18.407 19.578 19.578C18.406 20.749 16.521 20.75 12.75 20.75H8.75C4.979 20.75 3.093 20.75 1.922 19.578C0.751 18.406 0.75 16.521 0.75 12.75Z" stroke="#ED0000" stroke-width="1.5"/>
<path d="M10.75 16.083C11.855 16.083 12.75 15.337 12.75 14.417C12.75 13.497 11.855 12.75 10.75 12.75C9.645 12.75 8.75 12.004 8.75 11.083C8.75 10.163 9.645 9.417 10.75 9.417M10.75 16.083C9.645 16.083 8.75 15.337 8.75 14.417M10.75 16.083V16.75M10.75 9.417V8.75M10.75 9.417C11.855 9.417 12.75 10.163 12.75 11.083" stroke="#ED0000" stroke-width="1.5" stroke-linecap="round"/>
</svg>
