<svg width="16" height="17" viewBox="0 0 16 17" fill="none" xmlns="http://www.w3.org/2000/svg">
<path d="M14.3901 11.56C12.7101 10.7 10.5301 10 8.00006 10C5.47006 10 3.29007 10.7 1.61007 11.56C1.12212 11.8113 0.713366 12.1929 0.429165 12.6625C0.144963 13.132 -0.00356536 13.6712 6.49903e-05 14.22V17H16.0001V14.22C16.0001 13.1 15.3901 12.07 14.3901 11.56ZM8.00006 9C10.2101 9 12.0001 7.21 12.0001 5V1.5C12.0001 0.67 11.3301 0 10.5001 0C9.98006 0 9.52006 0.27 9.25006 0.67C8.98006 0.27 8.52006 0 8.00006 0C7.48006 0 7.02006 0.27 6.75006 0.67C6.48006 0.27 6.02006 0 5.50006 0C4.67006 0 4.00006 0.67 4.00006 1.5V5C4.00006 7.21 5.79006 9 8.00006 9Z" fill="#ED0000"/>
</svg>
