<svg width="20" height="20" viewBox="0 0 20 20" fill="none" xmlns="http://www.w3.org/2000/svg">
<path d="M16.25 20C15.8958 20 15.5992 19.88 15.36 19.64C15.1208 19.4 15.0008 19.1033 15 18.75V12.5C15 12.1458 15.12 11.8492 15.36 11.61C15.6 11.3708 15.8967 11.2508 16.25 11.25H18.75C19.1042 11.25 19.4012 11.37 19.6412 11.61C19.8812 11.85 20.0008 12.1467 20 12.5V18.75C20 19.1042 19.88 19.4012 19.64 19.6412C19.4 19.8812 19.1033 20.0008 18.75 20H16.25ZM8.75 20C8.39583 20 8.09917 19.88 7.86 19.64C7.62083 19.4 7.50083 19.1033 7.5 18.75V1.25C7.5 0.895833 7.62 0.599167 7.86 0.36C8.1 0.120833 8.39667 0.000833333 8.75 0H11.25C11.6042 0 11.9012 0.12 12.1412 0.36C12.3812 0.6 12.5008 0.896667 12.5 1.25V18.75C12.5 19.1042 12.38 19.4012 12.14 19.6412C11.9 19.8812 11.6033 20.0008 11.25 20H8.75ZM1.25 20C0.895833 20 0.599167 19.88 0.36 19.64C0.120833 19.4 0.000833333 19.1033 0 18.75V7.5C0 7.14583 0.12 6.84917 0.36 6.61C0.6 6.37083 0.896667 6.25083 1.25 6.25H3.75C4.10417 6.25 4.40125 6.37 4.64125 6.61C4.88125 6.85 5.00083 7.14667 5 7.5V18.75C5 19.1042 4.88 19.4012 4.64 19.6412C4.4 19.8812 4.10333 20.0008 3.75 20H1.25Z" fill="#ED0000"/>
</svg>
