<svg width="18" height="19" viewBox="0 0 18 19" fill="none" xmlns="http://www.w3.org/2000/svg">
<path d="M1 13.5C1 14.4283 1.36875 15.3185 2.02513 15.9749C2.6815 16.6313 3.57174 17 4.5 17C5.42826 17 6.3185 16.6313 6.97487 15.9749C7.63125 15.3185 8 14.4283 8 13.5C8 12.5717 7.63125 11.6815 6.97487 11.0251C6.3185 10.3687 5.42826 10 4.5 10C3.57174 10 2.6815 10.3687 2.02513 11.0251C1.36875 11.6815 1 12.5717 1 13.5ZM11 15C11 15.7956 11.3161 16.5587 11.8787 17.1213C12.4413 17.6839 13.2044 18 14 18C14.7956 18 15.5587 17.6839 16.1213 17.1213C16.6839 16.5587 17 15.7956 17 15C17 14.2044 16.6839 13.4413 16.1213 12.8787C15.5587 12.3161 14.7956 12 14 12C13.2044 12 12.4413 12.3161 11.8787 12.8787C11.3161 13.4413 11 14.2044 11 15Z" stroke="#ED0000" stroke-width="2" stroke-linecap="round" stroke-linejoin="round"/>
<path d="M6 10C6.366 8 7.866 6.127 10.5 4.4M14 12C12.667 9.667 11.667 6.667 13 3" stroke="#ED0000" stroke-width="2" stroke-linecap="round" stroke-linejoin="round"/>
<path d="M2 3C5.66667 0.333333 9.33333 0.333333 13 3C9.33333 5.66667 5.66667 5.66667 2 3Z" stroke="#ED0000" stroke-width="2" stroke-linecap="round" stroke-linejoin="round"/>
</svg>
