<svg width="20" height="20" viewBox="0 0 20 20" fill="none" xmlns="http://www.w3.org/2000/svg">
<path d="M10 16.169L5.30584 19.7306C5.07325 19.9197 4.81951 20.0092 4.54463 19.9991C4.26975 19.989 4.02658 19.91 3.81513 19.7621C3.60368 19.6142 3.44002 19.4145 3.32415 19.1632C3.20828 18.9119 3.20278 18.6388 3.30766 18.3438L5.11554 12.5128L0.516538 9.26644C0.2628 9.09834 0.104214 8.87771 0.0407793 8.60455C-0.0226552 8.33139 -0.0120827 8.07924 0.0724967 7.84811C0.157076 7.61697 0.30509 7.41189 0.516538 7.23287C0.727987 7.05384 0.981725 6.96475 1.27775 6.96559H6.95514L8.79474 0.914042C8.90047 0.61987 9.06455 0.393778 9.28699 0.235765C9.50944 0.0777523 9.74711 -0.000833822 10 6.67057e-06C10.2529 0.000847163 10.491 0.0798537 10.7143 0.237026C10.9376 0.394198 11.1012 0.61987 11.2053 0.914042L13.0449 6.96559H18.7222C19.0183 6.96559 19.272 7.0551 19.4835 7.23413C19.6949 7.41315 19.8429 7.61781 19.9275 7.84811C20.0121 8.0784 20.0227 8.33055 19.9592 8.60455C19.8958 8.87855 19.7372 9.09918 19.4835 9.26644L14.8845 12.5128L16.6923 18.3438C16.7981 18.6379 16.793 18.9111 16.6771 19.1632C16.5612 19.4154 16.3972 19.615 16.1849 19.7621C15.9726 19.9092 15.7294 19.9882 15.4554 19.9991C15.1813 20.01 14.9276 19.9205 14.6942 19.7306L10 16.169Z" fill="#ED0000"/>
</svg>
