<svg width="21" height="21" viewBox="0 0 21 21" fill="none" xmlns="http://www.w3.org/2000/svg">
<path d="M3.6 7.99556L5.55 8.82057C5.78333 8.3539 6.025 7.9039 6.275 7.47056C6.525 7.03723 6.8 6.6039 7.1 6.17056L5.7 5.89556L3.6 7.99556ZM7.15 10.0706L10 12.8956C10.7 12.6289 11.45 12.2206 12.25 11.6706C13.05 11.1206 13.8 10.4956 14.5 9.79556C15.6667 8.6289 16.5793 7.33323 17.238 5.90856C17.8967 4.4839 18.184 3.17123 18.1 1.97056C16.9 1.88723 15.5833 2.1749 14.15 2.83356C12.7167 3.49223 11.4167 4.40456 10.25 5.57056C9.55 6.27056 8.925 7.02056 8.375 7.82056C7.825 8.62056 7.41667 9.37057 7.15 10.0706ZM11.6 8.44557C11.2167 8.06223 11.025 7.59156 11.025 7.03356C11.025 6.47556 11.2167 6.00456 11.6 5.62056C11.9833 5.23656 12.4583 5.0449 13.025 5.04556C13.5917 5.04623 14.0667 5.2379 14.45 5.62056C14.8333 6.00323 15.025 6.47423 15.025 7.03356C15.025 7.5929 14.8333 8.06357 14.45 8.44557C14.0667 8.82757 13.5917 9.01923 13.025 9.02057C12.4583 9.0219 11.9833 8.83023 11.6 8.44557ZM12.075 16.4706L14.175 14.3706L13.9 12.9706C13.4667 13.2706 13.0333 13.5412 12.6 13.7826C12.1667 14.0239 11.7167 14.2616 11.25 14.4956L12.075 16.4706ZM19.9 0.145564C20.2167 2.16223 20.021 4.1249 19.313 6.03356C18.605 7.94223 17.384 9.7629 15.65 11.4956L16.15 13.9706C16.2167 14.3039 16.2 14.6289 16.1 14.9456C16 15.2622 15.8333 15.5372 15.6 15.7706L11.4 19.9706L9.3 15.0456L5.025 10.7706L0.1 8.67056L4.275 4.47056C4.50833 4.23723 4.78767 4.07056 5.113 3.97056C5.43833 3.87056 5.76733 3.8539 6.1 3.92056L8.575 4.42056C10.3083 2.68723 12.125 1.46223 14.025 0.745565C15.925 0.028898 17.8833 -0.171102 19.9 0.145564ZM1.875 13.9456C2.45833 13.3622 3.171 13.0666 4.013 13.0586C4.855 13.0506 5.56733 13.3379 6.15 13.9206C6.73267 14.5032 7.02033 15.2159 7.013 16.0586C7.00567 16.9012 6.70967 17.6136 6.125 18.1956C5.70833 18.6122 5.01267 18.9706 4.038 19.2706C3.06333 19.5706 1.71733 19.8372 0 20.0706C0.233333 18.3539 0.5 17.0079 0.8 16.0326C1.1 15.0572 1.45833 14.3616 1.875 13.9456ZM3.3 15.3456C3.13333 15.5122 2.96667 15.8166 2.8 16.2586C2.63333 16.7006 2.51667 17.1462 2.45 17.5956C2.9 17.5289 3.346 17.4166 3.788 17.2586C4.23 17.1006 4.534 16.9379 4.7 16.7706C4.9 16.5706 5.00833 16.3289 5.025 16.0456C5.04167 15.7622 4.95 15.5206 4.75 15.3206C4.55 15.1206 4.30833 15.0246 4.025 15.0326C3.74167 15.0406 3.5 15.1449 3.3 15.3456Z" fill="#ED0000"/>
</svg>
